<?xml version="1.0" standalone="no"?>
<!DOCTYPE svg PUBLIC "-//W3C//DTD SVG 20010904//EN"
 "http://www.w3.org/TR/2001/REC-SVG-20010904/DTD/svg10.dtd">
<svg version="1.0" xmlns="http://www.w3.org/2000/svg"
 width="724.000000pt" height="724.000000pt" viewBox="0 0 724.000000 724.000000"
 preserveAspectRatio="xMidYMid meet">
<metadata>
Created by potrace 1.11, written by Peter Selinger 2001-2013
</metadata>
<g transform="translate(0.000000,724.000000) scale(0.100000,-0.100000)"
fill="#000000" stroke="none">
<path d="M2430 5696 c-20 -7 -74 -19 -120 -25 -116 -15 -387 -90 -430 -118
-19 -13 -39 -23 -45 -23 -32 0 -86 -24 -116 -51 -19 -17 -52 -40 -73 -51 -21
-11 -59 -40 -85 -65 -25 -25 -71 -63 -102 -84 -32 -21 -59 -43 -61 -49 -1 -5
-86 -94 -188 -197 -175 -178 -325 -356 -365 -433 -10 -19 -33 -53 -51 -76 -38
-46 -104 -167 -104 -190 0 -9 -21 -58 -46 -110 -25 -52 -50 -118 -56 -147 -6
-29 -13 -200 -15 -387 -4 -340 1 -419 33 -465 8 -11 14 -27 14 -36 0 -9 30
-56 68 -105 56 -74 99 -114 272 -251 113 -89 225 -180 250 -201 75 -65 128
-96 329 -196 106 -53 219 -114 250 -136 117 -85 279 -181 346 -207 39 -14 97
-37 130 -51 33 -13 89 -35 125 -49 36 -13 94 -39 130 -57 64 -33 135 -58 255
-90 89 -23 187 -48 215 -53 14 -3 75 -20 135 -39 61 -19 131 -36 155 -38 25
-3 124 -12 220 -21 96 -9 243 -25 325 -37 130 -19 204 -23 550 -26 444 -4 684
7 802 37 43 11 115 25 160 31 45 6 108 20 140 31 32 11 101 28 153 39 93 18
320 94 432 143 166 74 238 160 238 287 0 78 -22 132 -75 183 -53 51 -108 70
-193 65 -58 -3 -79 -9 -128 -40 -69 -42 -318 -131 -419 -149 -38 -6 -87 -18
-109 -25 -49 -18 -51 -17 -36 1 7 9 52 36 100 60 47 25 117 71 154 103 38 31
81 66 97 77 15 11 33 30 38 43 6 12 29 47 51 76 54 72 87 140 100 206 6 30 15
71 20 90 5 19 12 103 16 186 l7 151 49 27 c26 15 69 45 93 66 25 22 51 43 59
47 7 4 23 28 36 53 12 25 36 60 53 78 l31 32 4 317 c5 338 4 348 -49 528 -16
56 -29 109 -29 119 0 11 -13 40 -29 65 -16 25 -35 66 -41 91 -7 26 -28 62 -49
85 -20 22 -46 55 -57 74 -24 42 -262 225 -453 348 -79 51 -148 93 -153 93 -5
0 -60 20 -121 44 -62 24 -147 53 -189 64 -42 11 -98 31 -124 46 -33 18 -61 26
-96 26 -33 0 -59 6 -76 19 -109 77 -408 190 -542 206 -30 3 -77 10 -105 15
-80 15 -171 24 -332 35 -123 9 -184 -8 -246 -69 -97 -96 -100 -255 -8 -345
l30 -30 -66 -37 c-37 -20 -112 -71 -167 -113 -56 -42 -150 -107 -210 -144
-241 -152 -472 -360 -550 -497 -20 -36 -59 -96 -86 -135 -28 -38 -79 -127
-114 -197 l-65 -126 -73 66 c-41 37 -104 87 -140 112 -36 25 -74 57 -85 73
-10 15 -32 32 -48 37 -17 6 -74 38 -127 73 -54 34 -117 74 -140 90 -24 15 -80
51 -124 80 l-82 53 136 140 c74 76 148 149 164 161 17 12 47 37 67 56 21 19
56 44 79 56 22 11 43 25 46 30 4 5 21 13 38 16 18 4 48 18 68 30 42 27 186 70
290 85 41 7 98 18 125 25 28 8 75 16 105 18 71 5 118 26 165 72 121 122 86
323 -70 400 -51 25 -230 32 -285 11z m2236 -767 c67 -30 222 -146 273 -206 24
-27 55 -70 69 -96 15 -25 48 -77 73 -114 68 -101 99 -167 190 -413 22 -58 50
-128 64 -156 25 -50 95 -350 95 -409 0 -31 -62 -105 -88 -105 -8 0 -29 -9 -46
-19 -17 -10 -80 -31 -139 -46 -60 -14 -137 -37 -173 -51 -35 -13 -68 -24 -73
-24 -4 0 -8 102 -7 228 1 157 -3 238 -11 262 -7 19 -24 112 -38 205 -14 94
-37 217 -51 275 -14 58 -28 128 -30 155 -6 54 -25 108 -83 223 -40 80 -209
272 -240 272 -9 0 -21 4 -26 9 -6 5 -26 14 -45 19 -28 8 -7 10 101 11 119 1
143 -2 185 -20z m-541 -453 c17 -7 36 -20 44 -29 7 -10 19 -17 26 -17 19 0 46
-35 55 -72 5 -18 16 -60 25 -93 40 -143 65 -260 85 -400 12 -82 29 -177 37
-209 13 -51 13 -81 3 -210 -12 -145 -21 -196 -37 -196 -5 0 -30 7 -58 16 -27
9 -90 20 -140 25 -49 5 -112 13 -140 18 -27 5 -79 14 -115 20 -36 6 -112 28
-170 50 -58 22 -141 49 -185 61 -44 12 -99 30 -123 41 -23 10 -51 19 -62 19
-10 0 -106 35 -212 78 l-193 77 118 145 c65 80 148 183 185 229 156 195 222
261 355 351 125 85 160 100 262 114 51 7 208 -5 240 -18z m-2807 -370 c51 -36
129 -87 173 -112 44 -25 110 -69 147 -98 37 -28 96 -71 132 -95 36 -25 105
-81 153 -125 84 -78 185 -149 255 -180 37 -17 39 -27 12 -71 -22 -35 -67 -162
-83 -235 -5 -25 -12 -125 -14 -222 -4 -174 -3 -178 22 -227 14 -28 23 -51 20
-51 -11 0 -47 22 -89 54 -23 17 -131 76 -241 130 -117 58 -218 114 -243 137
-25 21 -70 55 -101 76 -31 20 -78 58 -106 83 -27 26 -71 61 -97 79 -70 47
-168 141 -168 160 0 9 -5 22 -11 28 -11 11 -7 442 5 503 4 19 18 55 30 80 13
25 31 68 41 95 9 28 22 60 28 73 11 23 11 23 27 4 8 -11 57 -49 108 -86z
m1502 -944 c252 -102 369 -146 395 -152 55 -11 -177 -42 -294 -38 -116 3 -106
-3 -144 93 -13 33 -32 77 -41 99 -13 29 -14 37 -4 33 7 -3 47 -19 88 -35z
m2518 -292 c-7 -11 -21 -23 -31 -26 -10 -3 -25 -18 -35 -32 -9 -15 -26 -35
-37 -44 -35 -30 -123 -58 -183 -58 -58 0 -186 -13 -507 -51 -99 -12 -209 -24
-245 -26 l-65 -3 70 20 c107 30 240 57 387 79 286 43 311 49 468 107 36 13 92
30 125 38 33 8 61 15 63 15 1 1 -3 -8 -10 -19z m-1183 -261 c-44 -10 -93 -18
-110 -17 -34 1 126 36 165 36 14 0 -11 -8 -55 -19z m-240 -51 c-38 -15 -78
-21 -170 -24 l-120 -3 90 15 c156 27 189 31 220 32 26 1 24 -2 -20 -20z m1305
-359 c-30 -5 -95 -18 -145 -29 -94 -20 -375 -41 -530 -39 -115 1 -78 11 129
33 83 9 201 23 261 30 129 15 378 20 285 5z"/>
</g>
</svg>
